# xmcd
#
# Track frame offsets:
#	150
#	12701
#	40196
#	53665
#	65408
#	87619
#	100611
#	122304
#	135779
#	150213
#	167609
#
# Disc length: 2495 seconds
#
# Revision: 0
# Processed by: cddbd v1.5.2PL0 Copyright (c) Steve Scherf et al.
# Submitted via: EasyCDDAExtractor 9.0.0.1
#
DISCID=7909bd0b
DTITLE=Aleksandr Belkin - Black Papa
DYEAR=2003
DGENRE=Blues
TTITLE0=Stuck Between Blues
TTITLE1=Hi-Heal Sneakers
TTITLE2=Sportin' Life Blues
TTITLE3=Well I Done Got Over It
TTITLE4=Careless Love
TTITLE5=I've Got A Girl
TTITLE6=Rockin' And Rollin' Tonight
TTITLE7=I'd Better Lie To You
TTITLE8=Good Morning Mr. Blues
TTITLE9=A Man Who Prayed To Much Blues
TTITLE10=I Feel So Free
EXTD=
EXTT0=
EXTT1=
EXTT2=
EXTT3=
EXTT4=
EXTT5=
EXTT6=
EXTT7=
EXTT8=
EXTT9=
EXTT10=
PLAYORDER=
